<?xml version="1.0" encoding="UTF-8"?>
<svg width="600px" height="203px" viewBox="0 0 600 203" version="1.1" xmlns="http://www.w3.org/2000/svg" xmlns:xlink="http://www.w3.org/1999/xlink">
    <!-- Generator: Sketch 56.2 (81672) - https://sketch.com -->
    <title>GrizzlyForce_Logo-Horizontal_White_1</title>
    <desc>Created with Sketch.</desc>
    <g id="GrizzlyForce_Logo-Horizontal_White_1" stroke="none" stroke-width="1" fill="none" fill-rule="evenodd">
        <g transform="translate(0.000000, 0.034195)">
            <path d="M276.742738,58.4741373 L288.886811,58.4741373 L288.886811,81.7774808 C285.76827,84.1300643 282.159152,85.9373592 278.055808,87.1938941 C273.952465,88.4504291 269.821766,89.0814321 265.665535,89.0814321 C259.700185,89.0814321 254.340307,87.8103075 249.580428,85.2644108 C244.822374,82.7221616 241.087419,79.1932862 238.381036,74.6814321 C235.671006,70.1659306 234.317814,65.0668425 234.317814,59.3768729 C234.317814,53.6869032 235.671006,48.5859914 238.381036,44.0723136 C241.087419,39.5586358 244.849729,36.0297604 249.662495,33.4875111 C254.477085,30.9416145 259.893498,29.6704899 265.911735,29.6704899 C270.943346,29.6704899 275.511735,30.5203379 279.615079,32.2163865 C283.716599,33.9106115 287.165231,36.3726175 289.953681,39.5987573 L281.418726,47.4790005 C277.317206,43.1568121 272.365839,40.9957178 266.56827,40.9957178 C262.900793,40.9957178 259.645474,41.7616753 256.802313,43.2935902 C253.957328,44.8255051 251.741523,46.9847756 250.15672,49.7750491 C248.56827,52.5653227 247.774957,55.7659306 247.774957,59.3768729 C247.774957,62.9331039 248.56827,66.1063561 250.15672,68.894806 C251.741523,71.6850795 253.942738,73.8607634 256.762191,75.4182102 C259.577997,76.9774808 262.793194,77.7562042 266.404136,77.7562042 C270.2321,77.7562042 273.677085,76.9373592 276.742738,75.2960218 L276.742738,58.4741373 Z" id="Fill-119" fill="#FFFFFF"></path>
            <path d="M332.789668,44.0714017 C330.708817,42.3498212 327.672343,41.4872072 323.680246,41.4872072 L312.849243,41.4872072 L312.849243,61.5115233 L323.680246,61.5115233 C327.672343,61.5115233 330.708817,60.6361434 332.789668,58.8835598 C334.868696,57.1327999 335.908209,54.6707938 335.908209,51.4975415 C335.908209,48.2714017 334.868696,45.794806 332.789668,44.0714017 L332.789668,44.0714017 Z M336.15441,88.0975415 L325.077206,72.094502 L324.418848,72.094502 L312.849243,72.094502 L312.849243,88.0975415 L299.55441,88.0975415 L299.55441,30.6562042 L324.418848,30.6562042 C329.506994,30.6562042 333.924015,31.5042285 337.671735,33.1984534 C341.417632,34.8963257 344.304562,37.3017969 346.328878,40.4203379 C348.351371,43.5388789 349.365352,47.2300643 349.365352,51.4975415 C349.365352,55.7650187 348.338605,59.4452619 346.286933,62.5346236 C344.235261,65.625809 341.324623,67.9911586 337.547723,69.6343197 L350.432222,88.0975415 L336.15441,88.0975415 Z" id="Fill-120" fill="#FFFFFF"></path>
            <polygon id="Fill-121" fill="#FFFFFF" points="361.507602 88.0960826 374.802434 88.0960826 374.802434 30.6547452 361.507602 30.6547452"></polygon>
            <polygon id="Fill-122" fill="#FFFFFF" points="436.59131 77.2650795 436.59131 88.0960826 386.371857 88.0960826 386.371857 79.480885 417.881887 41.4875719 387.026568 41.4875719 387.026568 30.6547452 435.360307 30.6547452 435.360307 39.2717665 403.932343 77.2650795"></polygon>
            <polygon id="Fill-123" fill="#FFFFFF" points="498.216416 77.2650795 498.216416 88.0960826 447.996963 88.0960826 447.996963 79.480885 479.506994 41.4875719 448.651674 41.4875719 448.651674 30.6547452 496.985413 30.6547452 496.985413 39.2717665 465.55745 77.2650795"></polygon>
            <polygon id="Fill-124" fill="#FFFFFF" points="510.03131 30.6554747 523.326143 30.6554747 523.326143 77.265809 552.127966 77.265809 552.127966 88.0968121 510.03131 88.0968121"></polygon>
            <polygon id="Fill-125" fill="#FFFFFF" points="576.334957 67.7458698 576.334957 88.0966297 563.040124 88.0966297 563.040124 67.5817361 540.80365 30.6552923 554.917328 30.6552923 570.262009 56.1762649 585.60669 30.6552923 598.653498 30.6552923"></polygon>
            <polygon id="Fill-126" fill="#FFFFFF" points="252.863468 128.852496 252.863468 144.033043 279.449486 144.033043 279.449486 154.701736 252.863468 154.701736 252.863468 175.62514 239.568635 175.62514 239.568635 118.183803 282.978361 118.183803 282.978361 128.852496"></polygon>
            <path d="M330.078909,162.947268 C332.814471,161.389821 334.962799,159.214137 336.520246,156.423864 C338.08134,153.635414 338.85824,150.462162 338.85824,146.905931 C338.85824,143.3497 338.08134,140.176447 336.520246,137.386174 C334.962799,134.5959 332.814471,132.42204 330.078909,130.86277 C327.343346,129.303499 324.279516,128.524776 320.889243,128.524776 C317.497146,128.524776 314.433316,129.303499 311.697754,130.86277 C308.962191,132.42204 306.815687,134.5959 305.256416,137.386174 C303.697146,140.176447 302.916599,143.3497 302.916599,146.905931 C302.916599,150.462162 303.697146,153.635414 305.256416,156.423864 C306.815687,159.214137 308.962191,161.389821 311.697754,162.947268 C314.433316,164.506539 317.497146,165.285262 320.889243,165.285262 C324.279516,165.285262 327.343346,164.506539 330.078909,162.947268 M304.764015,172.753347 C299.976781,170.183742 296.229061,166.640277 293.522678,162.128423 C290.814471,157.612921 289.461279,152.541189 289.461279,146.905931 C289.461279,141.270672 290.814471,136.197116 293.522678,131.683438 C296.229061,127.16976 299.976781,123.628119 304.764015,121.05669 C309.551249,118.485262 314.925717,117.199548 320.889243,117.199548 C326.850945,117.199548 332.212647,118.485262 336.972526,121.05669 C341.732404,123.628119 345.478301,127.16976 348.213863,131.683438 C350.949425,136.197116 352.317206,141.270672 352.317206,146.905931 C352.317206,152.541189 350.949425,157.612921 348.213863,162.128423 C345.478301,166.640277 341.732404,170.183742 336.972526,172.753347 C332.212647,175.326599 326.850945,176.61049 320.889243,176.61049 C314.925717,176.61049 309.551249,175.326599 304.764015,172.753347" id="Fill-127" fill="#FFFFFF"></path>
            <path d="M395.561523,131.600459 C393.480671,129.878879 390.444197,129.016265 386.4521,129.016265 L375.621097,129.016265 L375.621097,149.040581 L386.4521,149.040581 C390.444197,149.040581 393.480671,148.165201 395.561523,146.412618 C397.64055,144.661858 398.680064,142.199852 398.680064,139.026599 C398.680064,135.800459 397.64055,133.323864 395.561523,131.600459 L395.561523,131.600459 Z M398.926264,175.626599 L387.849061,159.62356 L387.190702,159.62356 L375.621097,159.62356 L375.621097,175.626599 L362.326264,175.626599 L362.326264,118.185262 L387.190702,118.185262 C392.278848,118.185262 396.695869,119.033286 400.443589,120.727511 C404.189486,122.425383 407.076416,124.830855 409.100732,127.949396 C411.123225,131.067937 412.137206,134.759122 412.137206,139.026599 C412.137206,143.294076 411.110459,146.97432 409.058787,150.063681 C407.007115,153.154867 404.096477,155.520216 400.319577,157.163377 L413.204076,175.626599 L398.926264,175.626599 Z" id="Fill-128" fill="#FFFFFF"></path>
            <path d="M435.893194,172.794198 C431.160671,170.250125 427.440307,166.723073 424.733924,162.209396 C422.025717,157.695718 420.670702,152.59663 420.670702,146.90666 C420.670702,141.21669 422.025717,136.115779 424.733924,131.600277 C427.440307,127.088423 431.160671,123.559548 435.893194,121.015475 C440.625717,118.471402 445.945474,117.200277 451.854288,117.200277 C456.829364,117.200277 461.330276,118.075657 465.351553,119.826417 C469.37283,121.577177 472.750337,124.093894 475.485899,127.376569 L466.952769,135.253165 C463.066447,130.766842 458.255504,128.525505 452.509,128.525505 C448.952769,128.525505 445.78134,129.302405 442.99289,130.863499 C440.200793,132.420946 438.026933,134.59663 436.465839,137.386903 C434.908392,140.175353 434.127845,143.348605 434.127845,146.90666 C434.127845,150.462891 434.908392,153.63432 436.465839,156.42277 C438.026933,159.214867 440.200793,161.388727 442.99289,162.947997 C445.78134,164.507268 448.952769,165.285991 452.509,165.285991 C458.255504,165.285991 463.066447,163.017298 466.952769,158.474441 L475.485899,166.352861 C472.750337,169.690247 469.360064,172.23432 465.311431,173.983256 C461.262799,175.734016 456.749121,176.611219 451.772222,176.611219 C445.916295,176.611219 440.625717,175.340095 435.893194,172.794198" id="Fill-129" fill="#FFFFFF"></path>
            <polygon id="Fill-130" fill="#FFFFFF" points="530.546203 164.957906 530.546203 175.626599 486.069608 175.626599 486.069608 118.185262 529.479334 118.185262 529.479334 128.852131 499.28055 128.852131 499.28055 141.324472 525.950459 141.324472 525.950459 151.664897 499.28055 151.664897 499.28055 164.957906"></polygon>
            <path d="M13.2898508,6.85991237 C14.0612794,6.28362057 14.8454739,5.74197923 15.6406107,5.23681206 C27.8995772,-2.53400861 40.8643189,-1.04221529 52.5542885,5.68544428 C53.7305803,6.36386373 54.8102155,7.04410689 55.7858994,7.70611297 C72.5658386,4.42890933 109.315383,4.42890933 126.093498,7.70611297 C127.071006,7.04410689 128.148817,6.36386373 129.323285,5.68726799 C141.033316,-1.05498125 154.023589,-2.53765602 166.298969,5.27510993 C167.074045,5.76751115 167.838179,6.29638653 168.598665,6.86538349 C182.933012,17.6106722 184.638179,40.8410674 173.741523,52.6696388 C180.516599,66.4714625 182.74517,81.9948668 181.49593,98.3152315 C180.95976,105.314624 179.805352,112.047754 178.227845,118.346842 C177.19745,122.470247 176.157936,125.772982 175.273437,128.163864 L169.134836,144.781493 L163.528757,137.674502 C158.553681,148.655049 151.26979,159.710368 140.861887,170.187572 C137.938483,173.129213 134.218118,176.293347 129.804744,179.665383 L112.193194,193.117055 L113.653985,173.92435 C109.749425,182.172982 104.845474,190.195475 98.9457778,198.254441 L98.9129511,198.232557 C98.2564161,198.998514 97.2953219,199.808241 95.776173,201.083013 C92.3640149,202.388788 92.3640149,202.388788 90.6223736,202.366903 C88.4576319,202.131645 88.4576319,202.131645 87.5877231,201.84897 C86.8600636,201.617359 86.1798204,201.334684 85.388331,200.964472 C84.2868113,200.444715 82.8624952,199.696994 81.1755651,198.757785 C77.7269329,196.833773 73.3482094,194.200338 68.8855955,191.346235 C57.3469936,183.963864 47.263711,176.48666 41.0083918,170.185748 C31.8023128,160.915839 24.919638,151.01128 19.913559,140.979061 C18.8466897,138.843499 17.9202459,136.808241 17.0995772,134.842283 L9.3597596,135.307329 L6.7372672,128.554137 C5.83088422,126.219791 4.56705443,122.284228 3.32510914,117.084836 C-0.62686654,100.52739 -1.43476928,83.1583926 2.97860458,66.5608242 C4.3828599,61.2775415 6.30322465,56.2131039 8.81994197,51.3328607 C-1.60437414,38.118271 -1.14479967,17.6635598 13.2898508,6.85991237" id="Fill-131" fill="#FFFFFF"></path>
            <path d="M125.006203,66.1340765 C131.870641,64.3814929 133.991614,64.7334686 133.991614,64.7334686 C133.991614,64.7334686 136.712586,72.2708546 130.444501,78.2343805 C122.05362,86.2477543 109.030519,76.2264777 107.556963,72.2708546 C113.296173,69.8599124 118.986143,67.6751099 125.006203,66.1340765 M161.783103,32.6179671 C160.515626,42.1194868 151.896781,42.4714625 151.896781,42.4714625 C151.896781,42.4714625 159.764258,36.405809 156.671249,27.9255659 C153.600124,19.443499 147.543589,20.1292133 147.543589,20.1292133 C150.14055,19.0732862 153.970337,19.1608242 156.707723,20.8951707 C159.884623,22.9231342 162.46517,27.5188789 161.783103,32.6179671 M74.4913098,26.9298212 C82.3040757,31.5438029 90.089486,41.9425871 90.9320392,55.9359002 C89.0189693,55.7772376 86.445717,55.487268 82.9970848,54.9766297 C71.4110666,53.2678151 55.4718569,44.849578 55.4718569,44.849578 C58.5976927,56.8605203 81.3119784,68.4337725 80.3381183,68.7328607 C69.8244405,72.0428911 61.8438933,62.7784534 47.2852307,64.7881798 C46.7107626,64.8665993 43.4663857,81.2726783 60.9903979,84.6191829 C60.9393341,84.6903075 60.8809754,84.7504899 60.8463249,84.812496 C54.4633462,93.8453227 52.4992125,105.469639 53.0517961,117.836204 C43.0779359,114.892739 29.808635,105.303681 23.5952611,87.8690309 C23.6299116,86.1073288 23.6992125,84.212496 23.7885742,82.1699428 C24.8590909,59.5650795 36.7496684,45.6939549 36.7496684,45.6939549 C36.7496684,45.6939549 27.5782398,42.5407634 24.3922216,35.718271 C21.2062034,28.8939549 25.6998204,22.7626479 32.2907018,21.5918273 C34.9004283,21.124958 38.471249,21.6191829 41.7794556,23.3626479 C44.3782398,24.7359002 46.9405499,26.4611282 49.0214009,28.3541373 C44.7995164,32.0289093 43.5794556,37.6732862 43.5794556,37.6732862 C50.0572672,32.1784534 55.7527079,30.099426 63.4323432,27.9948668 C67.0232246,27.5279975 70.814714,27.1231342 74.0262642,26.9462346 C74.1849268,26.9389397 74.3600028,26.849578 74.4913098,26.9298212 M65.2068113,136.284836 C65.2068113,136.284836 74.8724648,142.748058 83.0299116,146.120095 L84.3247444,152.320703 C80.6116745,151.695171 76.7928295,150.752314 73.0979967,149.670855 C69.4907018,144.684836 66.4451091,139.587572 65.2068113,136.284836 M84.5964769,112.46356 C69.1296076,112.153529 77.2049876,124.352314 82.9624344,133.290308 C77.0043797,130.859304 71.1666897,128.076326 65.5113705,125.047146 C61.915018,115.538332 61.3441973,105.726782 64.1472368,96.4532254 C67.6560514,84.830733 79.8128903,73.855657 79.8128903,73.855657 C79.8128903,73.855657 74.4657778,95.818575 90.9320392,112.560216 C89.2979967,112.541979 87.2116745,112.518271 84.5964769,112.46356 M19.2384222,14.8112801 C7.42444045,23.6526175 10.289486,41.5814929 20.9417657,49.3577847 C21.0858386,49.4544412 21.5144101,49.3577847 21.4177535,49.4890917 C-0.64911578,82.1097604 15.995869,124.961432 15.995869,124.961432 L23.7885742,124.492739 C24.0949572,124.476326 28.7563553,143.752921 48.0566593,163.18818 C60.7058994,175.930429 90.9320392,193.490915 90.9320392,192.389396 C105.67672,172.250186 116.017146,149.740156 115.191006,116.814928 C115.191006,116.814928 126.249972,138.99669 124.129,167.149274 L123.7752,171.774198 C127.604988,168.84897 131.113802,165.909152 133.818361,163.18818 C145.915018,151.009456 152.248757,138.89821 155.374592,131.546842 C154.356963,128.577845 153.020185,125.76204 151.336902,123.207025 C138.572769,104.010672 135.186143,102.309152 135.186143,102.309152 C135.186143,102.309152 151.82748,106.810064 165.959395,124.722526 C167.204988,121.348666 181.581279,80.7346844 160.446325,49.4890917 C160.358787,49.3577847 160.761826,49.4033774 160.920489,49.3577847 C173.27976,45.7468425 174.435991,23.6526175 162.643893,14.8112801 C145.772769,2.19121936 128.305292,18.5535294 128.305292,18.5535294 C119.334471,14.0526175 62.5369025,14.0526175 53.577024,18.5535294 C53.577024,18.5535294 36.102252,2.19121936 19.2384222,14.8112801" id="Fill-132" fill="#000000"></path>
        </g>
    </g>
</svg>